{
	"asset":{
		"generator":"Khronos glTF Blender I/O v4.1.63",
		"version":"2.0"
	},
	"scene":0,
	"scenes":[
		{
			"name":"Scene",
			"nodes":[
				0,
				1,
				2
			]
		}
	],
	"nodes":[
		{
			"mesh":0,
			"name":"brass_goblet_01",
			"translation":[
				-0.00032767606899142265,
				0.004920530132949352,
				0.12025979906320572
			]
		},
		{
			"mesh":1,
			"name":"brass_goblet_02",
			"translation":[
				-0.14954441785812378,
				0.005822327919304371,
				-0.030845999717712402
			]
		},
		{
			"mesh":2,
			"name":"brass_goblet_03",
			"translation":[
				0.15866722166538239,
				0.006193193141371012,
				-0.027895381674170494
			]
		}
	],
	"materials":[
		{
			"doubleSided":true,
			"name":"brass_goblets_01",
			"normalTexture":{
				"index":0
			},
			"pbrMetallicRoughness":{
				"baseColorTexture":{
					"index":1
				},
				"metallicRoughnessTexture":{
					"index":2
				}
			}
		},
		{
			"doubleSided":true,
			"name":"brass_goblets_02",
			"normalTexture":{
				"index":3
			},
			"pbrMetallicRoughness":{
				"baseColorTexture":{
					"index":4
				},
				"metallicRoughnessTexture":{
					"index":5
				}
			}
		},
		{
			"doubleSided":true,
			"name":"brass_goblets_03",
			"normalTexture":{
				"index":6
			},
			"pbrMetallicRoughness":{
				"baseColorTexture":{
					"index":7
				},
				"metallicRoughnessTexture":{
					"index":8
				}
			}
		}
	],
	"meshes":[
		{
			"name":"brass_goblet_01",
			"primitives":[
				{
					"attributes":{
						"POSITION":0,
						"NORMAL":1,
						"TEXCOORD_0":2,
						"TANGENT":3
					},
					"indices":4,
					"material":0
				}
			]
		},
		{
			"name":"brass_goblet_02",
			"primitives":[
				{
					"attributes":{
						"POSITION":5,
						"NORMAL":6,
						"TEXCOORD_0":7,
						"TANGENT":8
					},
					"indices":9,
					"material":1
				}
			]
		},
		{
			"name":"brass_goblet_03",
			"primitives":[
				{
					"attributes":{
						"POSITION":10,
						"NORMAL":11,
						"TEXCOORD_0":12,
						"TANGENT":13
					},
					"indices":14,
					"material":2
				}
			]
		}
	],
	"textures":[
		{
			"sampler":0,
			"source":0
		},
		{
			"sampler":0,
			"source":1
		},
		{
			"sampler":0,
			"source":2
		},
		{
			"sampler":0,
			"source":3
		},
		{
			"sampler":0,
			"source":4
		},
		{
			"sampler":0,
			"source":5
		},
		{
			"sampler":0,
			"source":6
		},
		{
			"sampler":0,
			"source":7
		},
		{
			"sampler":0,
			"source":8
		}
	],
	"images":[
		{
			"mimeType":"image/png",
			"name":"brass_goblet_01_nor_gl",
			"uri":"textures/brass_goblet_01_nor_gl.png"
		},
		{
			"mimeType":"image/jpeg",
			"name":"brass_goblet_01_diff_2k",
			"uri":"textures/brass_goblet_01_diff_2k.jpg"
		},
		{
			"mimeType":"image/png",
			"name":"brass_goblet_01_metal-brass_goblet_01_rough",
			"uri":"textures/brass_goblet_01_metal-brass_goblet_01_rough.png"
		},
		{
			"mimeType":"image/png",
			"name":"brass_goblet_02_nor_gl",
			"uri":"textures/brass_goblet_02_nor_gl.png"
		},
		{
			"mimeType":"image/jpeg",
			"name":"brass_goblet_02_diff_2k",
			"uri":"textures/brass_goblet_02_diff_2k.jpg"
		},
		{
			"mimeType":"image/png",
			"name":"brass_goblet_02_metal-brass_goblet_02_rough",
			"uri":"textures/brass_goblet_02_metal-brass_goblet_02_rough.png"
		},
		{
			"mimeType":"image/png",
			"name":"brass_goblet_03_nor_gl",
			"uri":"textures/brass_goblet_03_nor_gl.png"
		},
		{
			"mimeType":"image/jpeg",
			"name":"brass_goblet_03_diff_2k",
			"uri":"textures/brass_goblet_03_diff_2k.jpg"
		},
		{
			"mimeType":"image/png",
			"name":"brass_goblet_03_metal-brass_goblet_03_rough",
			"uri":"textures/brass_goblet_03_metal-brass_goblet_03_rough.png"
		}
	],
	"accessors":[
		{
			"bufferView":0,
			"componentType":5126,
			"count":1946,
			"max":[
				0.07483092695474625,
				0.2719894349575043,
				0.07483091205358505
			],
			"min":[
				-0.07483093440532684,
				-2.7939677238464355e-09,
				-0.07483094185590744
			],
			"type":"VEC3"
		},
		{
			"bufferView":1,
			"componentType":5126,
			"count":1946,
			"type":"VEC3"
		},
		{
			"bufferView":2,
			"componentType":5126,
			"count":1946,
			"type":"VEC2"
		},
		{
			"bufferView":3,
			"componentType":5126,
			"count":1946,
			"type":"VEC4"
		},
		{
			"bufferView":4,
			"componentType":5123,
			"count":9216,
			"type":"SCALAR"
		},
		{
			"bufferView":5,
			"componentType":5126,
			"count":2224,
			"max":[
				0.07055510580539703,
				0.26576897501945496,
				0.07055514305830002
			],
			"min":[
				-0.070555180311203,
				-4.996545612812042e-06,
				-0.07055515050888062
			],
			"type":"VEC3"
		},
		{
			"bufferView":6,
			"componentType":5126,
			"count":2224,
			"type":"VEC3"
		},
		{
			"bufferView":7,
			"componentType":5126,
			"count":2224,
			"type":"VEC2"
		},
		{
			"bufferView":8,
			"componentType":5126,
			"count":2224,
			"type":"VEC4"
		},
		{
			"bufferView":9,
			"componentType":5123,
			"count":9792,
			"type":"SCALAR"
		},
		{
			"bufferView":10,
			"componentType":5126,
			"count":2242,
			"max":[
				0.0746278464794159,
				0.2721051871776581,
				0.07462787628173828
			],
			"min":[
				-0.07462790608406067,
				3.259629011154175e-09,
				-0.07462787628173828
			],
			"type":"VEC3"
		},
		{
			"bufferView":11,
			"componentType":5126,
			"count":2242,
			"type":"VEC3"
		},
		{
			"bufferView":12,
			"componentType":5126,
			"count":2242,
			"type":"VEC2"
		},
		{
			"bufferView":13,
			"componentType":5126,
			"count":2242,
			"type":"VEC4"
		},
		{
			"bufferView":14,
			"componentType":5123,
			"count":9792,
			"type":"SCALAR"
		}
	],
	"bufferViews":[
		{
			"buffer":0,
			"byteLength":23352,
			"byteOffset":0,
			"target":34962
		},
		{
			"buffer":0,
			"byteLength":23352,
			"byteOffset":23352,
			"target":34962
		},
		{
			"buffer":0,
			"byteLength":15568,
			"byteOffset":46704,
			"target":34962
		},
		{
			"buffer":0,
			"byteLength":31136,
			"byteOffset":62272,
			"target":34962
		},
		{
			"buffer":0,
			"byteLength":18432,
			"byteOffset":93408,
			"target":34963
		},
		{
			"buffer":0,
			"byteLength":26688,
			"byteOffset":111840,
			"target":34962
		},
		{
			"buffer":0,
			"byteLength":26688,
			"byteOffset":138528,
			"target":34962
		},
		{
			"buffer":0,
			"byteLength":17792,
			"byteOffset":165216,
			"target":34962
		},
		{
			"buffer":0,
			"byteLength":35584,
			"byteOffset":183008,
			"target":34962
		},
		{
			"buffer":0,
			"byteLength":19584,
			"byteOffset":218592,
			"target":34963
		},
		{
			"buffer":0,
			"byteLength":26904,
			"byteOffset":238176,
			"target":34962
		},
		{
			"buffer":0,
			"byteLength":26904,
			"byteOffset":265080,
			"target":34962
		},
		{
			"buffer":0,
			"byteLength":17936,
			"byteOffset":291984,
			"target":34962
		},
		{
			"buffer":0,
			"byteLength":35872,
			"byteOffset":309920,
			"target":34962
		},
		{
			"buffer":0,
			"byteLength":19584,
			"byteOffset":345792,
			"target":34963
		}
	],
	"samplers":[
		{
			"magFilter":9729,
			"minFilter":9987
		}
	],
	"buffers":[
		{
			"byteLength":365376,
			"uri":"brass_goblets_2k.bin"
		}
	]
}
